
<svg version="1.0" xmlns="http://www.w3.org/2000/svg"
 width="15" height="15" viewBox="0 0 512.000000 512.000000"
 preserveAspectRatio="xMidYMid meet">
<g transform="translate(0.000000,512.000000) scale(0.100000,-0.100000)"
fill="#fff" stroke="none">
<path d="M1362 3823 c-63 -31 -93 -104 -78 -190 7 -34 66 -96 524 -555 l517
-518 -517 -517 c-554 -557 -547 -548 -533 -636 10 -55 74 -121 127 -131 93
-17 79 -29 640 532 l518 517 518 -517 c561 -561 534 -538 632 -525 99 13 157
122 120 224 -6 15 -241 258 -523 541 l-512 512 511 513 c282 281 517 522 523
534 16 32 13 110 -5 149 -31 65 -104 95 -191 80 -34 -7 -96 -66 -556 -524
l-517 -517 -513 512 c-282 282 -525 517 -540 523 -41 15 -107 12 -145 -7z"/>
</g>
</svg>
