<svg version="1.0" id="Layer_1"
	 xmlns="http://www.w3.org/2000/svg" xmlns:xlink="http://www.w3.org/1999/xlink" x="0px" y="0px" viewBox="0 320.9 612 150.3"
	 style="enable-background:new 0 320.9 612 150.3;" xml:space="preserve">
<style type="text/css">
	.st0{fill:#F19521;}
	.st4{fill:#fff;}
	.st1{fill:#000;}
	.st2{fill:#fff;stroke:#231F20;stroke-width:2;}
	.st3{fill:none;stroke:#231F20;stroke-width:2;}
</style>
<switch>
	<g >
		<path class="st0" d="M66,471.2c36.3,0,65.9-29.6,65.9-66c0-36.3-29.6-65.9-65.9-65.9c-36.4,0-66,29.6-66,65.9
			C0,441.6,29.6,471.2,66,471.2z"/>
		<path class="st4" d="M18.5,451.2c-9.7-10-16.3-23.2-18.1-37.7c4.8-0.8,9.9-2.5,17.6-12.1l31.8-56.6
			C41.9,379.2,16.6,417.6,18.5,451.2L18.5,451.2z"/>
		<path class="st2" d="M87.5,321.3c-9.2,23.7-61.7,147.2,0.4,125.3c-67.4,30.7-52.6-13.7-43.1-40.9C60.8,361.6,74,351.9,87.5,321.3z
			"/>
		<path class="st3" d="M13.2,424.6c27.1-8.1,165.2-21.6,117.9-61.1c57.4,46.9,11.1,53.2-17.5,56.8C66.8,425.5,46.7,423.2,13.2,424.6
			z"/>
		<path class="st1" d="M206.2,401.1h-7.9v-53H176v-6.3h52v6.3h-21.9V401.1z M238.9,371.6c0-5.7,1.8-9.2,5.4-10.3
			c3.6-1.1,8.1-1.7,13.5-1.7c6.6,0,11.7,0.8,15.3,2.4c3.6,1.6,5.4,5.7,5.4,12.2v27h-6.7l0.4-4.3c-2,2.2-4.4,3.6-7.2,4.1
			c-2.8,0.5-5.8,0.8-8.9,0.8c-5.9,0-10.5-0.8-13.8-2.3c-3.4-1.5-5-5.1-5-10.8c0-5.5,1.8-9,5.3-10.4c3.5-1.4,8-2.1,13.4-2.1
			c0.8,0,1.7,0,2.5,0c0.9,0,1.7,0.1,2.5,0.1c1.2,0.1,2.3,0.3,3.5,0.4c1.1,0.2,2.2,0.4,3.3,0.8c0.8,0.2,1.4,0.6,2,1.1
			c0.5,0.5,1,1.1,1.4,1.7v-5c0-5.1-0.8-8.3-2.4-9.5c-1.6-1.2-5.4-1.9-11.3-1.9c-0.6,0-1.2,0-2,0c-0.7,0-1.4,0.1-2.1,0.1
			c-0.9,0.1-1.9,0.2-2.8,0.4c-0.9,0.2-1.7,0.6-2.3,1c-0.7,0.4-1.2,0.9-1.5,1.6c-0.3,0.6-0.4,1.3-0.5,2c-0.1,0.2-0.1,0.4-0.1,0.6v1.2
			c0,0.2,0,0.4,0.1,0.7L238.9,371.6L238.9,371.6z M247.2,395.1c1.7,1.2,4.5,1.7,8.5,1.7h2.2c0.7,0,1.5,0,2.3-0.1
			c2.8-0.1,5.5-0.7,7.9-1.6c2.4-1,3.6-3,3.6-6.1c0-3.7-1.3-6-3.9-6.9c-2.6-0.8-5.7-1.2-9.4-1.2h-3.6c-0.7,0-1.4,0-2.1,0.1
			c-1.2,0.1-2.3,0.3-3.4,0.6c-1.1,0.3-2,0.7-2.8,1.3c-0.5,0.4-0.9,0.8-1.2,1.4c-0.3,0.6-0.4,1.2-0.5,1.9c-0.1,0.3-0.1,0.6-0.1,0.9
			v0.9C244.6,391.6,245.5,393.9,247.2,395.1L247.2,395.1z M320.6,364.5h-18.4v25.5c0,2.4,0.4,4,1.2,5c0.8,1,2.7,1.5,5.5,1.5
			c3.2,0,5.1-0.7,5.8-2.1c0.7-1.4,1-3.1,1-5.3v-2.8h6.8c0,4.3-0.7,7.9-2.2,10.9c-1.5,2.9-5.3,4.4-11.4,4.4c-5.3,0-9-0.8-11-2.5
			c-2-1.7-3-4.7-3-9.1v-25.5h-6.2v-5h6.2v-10.1h7.3v10.1h18.4L320.6,364.5L320.6,364.5z M352.3,401.1h-10l-15.9-41.5h7.3l13.7,36.8
			l13.1-36.8h7.8L352.3,401.1L352.3,401.1z M378.5,371.6c0-5.7,1.8-9.2,5.4-10.3c3.6-1.1,8.1-1.7,13.5-1.7c6.6,0,11.7,0.8,15.3,2.4
			c3.6,1.6,5.4,5.7,5.4,12.2v27h-6.7l0.4-4.3c-2,2.2-4.4,3.6-7.2,4.1c-2.8,0.5-5.8,0.8-8.9,0.8c-5.9,0-10.5-0.8-13.8-2.3
			c-3.4-1.5-5-5.1-5-10.8c0-5.5,1.8-9,5.3-10.4c3.5-1.4,8-2.1,13.4-2.1c0.8,0,1.7,0,2.5,0c0.9,0,1.7,0.1,2.5,0.1
			c1.2,0.1,2.3,0.3,3.5,0.4c1.1,0.2,2.2,0.4,3.3,0.8c0.8,0.2,1.4,0.6,2,1.1c0.5,0.5,1,1.1,1.4,1.7v-5c0-5.1-0.8-8.3-2.4-9.5
			c-1.6-1.2-5.4-1.9-11.3-1.9c-0.6,0-1.2,0-2,0c-0.7,0-1.4,0.1-2.1,0.1c-0.9,0.1-1.9,0.2-2.8,0.4c-0.9,0.2-1.7,0.6-2.3,1
			c-0.7,0.4-1.2,0.9-1.5,1.6c-0.3,0.6-0.4,1.3-0.5,2c-0.1,0.2-0.1,0.4-0.1,0.6v1.2c0,0.2,0,0.4,0.1,0.7L378.5,371.6L378.5,371.6z
			 M386.7,395.1c1.7,1.2,4.5,1.7,8.5,1.7h2.2c0.7,0,1.5,0,2.3-0.1c2.8-0.1,5.5-0.7,7.9-1.6c2.4-1,3.6-3,3.6-6.1c0-3.7-1.3-6-3.9-6.9
			c-2.6-0.8-5.7-1.2-9.4-1.2h-3.6c-0.7,0-1.4,0-2.1,0.1c-1.2,0.1-2.3,0.3-3.4,0.6c-1.1,0.3-2,0.7-2.8,1.3c-0.5,0.4-0.9,0.8-1.2,1.4
			c-0.3,0.6-0.4,1.2-0.5,1.9c-0.1,0.3-0.1,0.6-0.1,0.9v0.9C384.2,391.6,385,393.9,386.7,395.1L386.7,395.1z M474.5,358
			c-0.3-4.4-1.2-7.3-2.8-8.8c-1.6-1.5-5-2.2-10.3-2.2h-3.7c-0.9,0-1.9,0-3,0c-1.1,0-2.3,0.1-3.5,0.1c-1.5,0.1-2.9,0.3-4.3,0.5
			c-1.4,0.2-2.5,0.6-3.3,1.1c-1.1,0.6-1.9,1.4-2.4,2.4c-0.5,1-0.9,2.1-1.1,3.1c-0.1,0.5-0.1,0.9-0.1,1.4c0,0.5,0,0.9,0,1.3
			c0,3.3,0.6,5.7,1.8,7.4c1.2,1.7,4,2.7,8.3,2.9l4.9,0.2c1.6,0.1,3.2,0.1,4.7,0.1c6.5,0.1,12.1,0.9,16.7,2.4c4.6,1.5,6.9,6,6.9,13.6
			c0,4.5-0.8,8.4-2.3,11.6c-1.5,3.2-5.4,5.1-11.6,5.7c-4.3,0.2-8.7,0.4-13,0.4c-7.1,0-13-0.8-17.6-2.4c-4.6-1.6-6.9-6.1-6.9-13.6
			v-0.7c0-0.2,0-0.5,0.1-0.7c0-0.2,0-0.5,0-0.7c0-0.2,0-0.5,0-0.7h7.4c0,5.4,0.9,9,2.6,10.6c1.7,1.7,5.7,2.5,12,2.5h6.5
			c5.6,0,9.5-0.6,11.7-1.8c2.2-1.2,3.3-4.4,3.3-9.4c0-4-0.7-6.6-2-7.9c-1.3-1.3-4.2-2.1-8.7-2.2c-1.1-0.1-2.1-0.1-3.1-0.1
			c-1,0-2,0-3,0c-7.2-0.2-13.4-1.1-18.6-2.6c-5.2-1.5-7.9-6.2-7.9-14.1c0-7.2,2.1-11.7,6.3-13.4c4.2-1.8,9.9-2.7,17-2.7h1.9
			c7.1,0,13,0.7,17.6,2.2c4.6,1.5,6.9,6,6.9,13.6v0.9L474.5,358L474.5,358z M499.6,363.7c2.4-3.3,8-4.9,16.8-4.9
			c9.1,0,15.1,1.4,17.8,4.1c2.7,2.8,4.1,8.1,4.1,15.9c0,6.8-0.8,12.3-2.5,16.6c-1.7,4.2-7.4,6.3-17.3,6.3c-8.5,0-14.4-1.2-17.7-3.5
			c-3.2-2.3-4.8-7.4-4.8-15.1v-3.9C496,372.2,497.2,367,499.6,363.7L499.6,363.7z M503.4,382.6v1.9c0,0.7,0,1.4,0.1,2
			c0.1,1.7,0.4,3.4,0.8,4.9c0.4,1.5,1,2.7,2,3.6c0.8,0.7,1.8,1.1,3,1.3c1.2,0.2,2.5,0.3,3.8,0.4h4.3c4.1,0,7.3-0.5,9.6-1.5
			c2.2-1,3.5-3.5,3.8-7.4c0.1-0.8,0.1-1.6,0.1-2.4c0-0.8,0-1.6,0-2.4c0.1-0.8,0.1-1.6,0.1-2.4v-2.4c0-5.1-0.5-8.7-1.6-10.9
			c-1.1-2.2-4.5-3.3-10.4-3.3h-1.6c-6.2,0-10,0.8-11.6,2.5c-1.5,1.7-2.3,5.4-2.3,11.3L503.4,382.6L503.4,382.6z M574.6,364.6H562
			v36.5h-7.2v-36.5h-7.3v-5.1h7.3v-6.1c0-4.8,1.3-8.1,3.8-9.8c2.5-1.7,6.4-2.6,11.5-2.6c0.4,0,0.7,0,1.1,0c0.4,0,0.8,0,1.2,0
			c0.4,0,0.7,0,1.1,0c0.4,0,0.8,0,1.1,0v5.2c-0.4-0.1-0.8-0.1-1.3-0.1c-0.4,0-0.9,0-1.3,0h-2.7c-2.8,0-4.7,0.5-5.8,1.6
			c-1.1,1.1-1.6,2.8-1.6,5v6.7h12.6L574.6,364.6L574.6,364.6z M610.1,364.5h-18.4v25.5c0,2.4,0.4,4,1.2,5c0.8,1,2.7,1.5,5.5,1.5
			c3.2,0,5.1-0.7,5.8-2.1c0.7-1.4,1-3.1,1-5.3v-2.8h6.8c0,4.3-0.7,7.9-2.2,10.9c-1.5,2.9-5.3,4.4-11.4,4.4c-5.3,0-9-0.8-11-2.5
			c-2-1.7-3-4.7-3-9.1v-25.5h-6.2v-5h6.2v-10.1h7.3v10.1h18.4L610.1,364.5L610.1,364.5z"/>
		<g>
			<path class="st1" d="M204.4,443.3h-2.8c0-1.3-0.3-2.2-0.8-2.5c-0.5-0.3-1.9-0.5-4.2-0.5c-2.1,0-3.4,0.2-4,0.5
				c-0.6,0.3-0.9,1.2-0.9,2.5c0,2,0.9,3,2.8,3.1l2.3,0.1l2.9,0.1c3.5,0.2,5.2,2,5.2,5.5c0,2.2-0.6,3.6-1.7,4.5
				c-1.2,0.8-3.3,1.2-6.4,1.2c-3.2,0-5.3-0.4-6.5-1.2c-1.2-0.8-1.8-2.2-1.8-4.2l0-1h2.9l0,0.9c0,1.3,0.3,2.1,1,2.5
				c0.6,0.4,1.9,0.6,3.8,0.6c2.3,0,3.8-0.2,4.6-0.7c0.7-0.4,1.1-1.4,1.1-2.8c0-2-0.9-3-2.8-3c-4.3,0-7.1-0.4-8.5-1.1
				c-1.4-0.7-2-2.2-2-4.5c0-2.2,0.5-3.6,1.6-4.3c1.1-0.7,3.2-1.1,6.4-1.1c5.1,0,7.7,1.5,7.7,4.6L204.4,443.3L204.4,443.3z
				 M223.2,450.6h2.8l0,1c0,4.1-2.7,6.2-8.1,6.2c-3.5,0-5.8-0.7-6.9-2c-1.1-1.3-1.7-4-1.7-8.1c0-3.8,0.6-6.4,1.7-7.8
				c1.1-1.4,3.3-2,6.5-2c3.1,0,5.3,0.5,6.4,1.4c1.1,0.9,1.7,2.6,1.7,5.2h-2.8V444c0-1.5-0.4-2.5-1.1-3c-0.7-0.5-2.2-0.7-4.4-0.7
				c-2.1,0-3.5,0.5-4.1,1.4c-0.6,0.9-0.9,3.1-0.9,6.3c0,3.2,0.3,5.2,1,6.1s2.3,1.3,4.8,1.3c2.1,0,3.5-0.3,4.1-0.9
				C222.9,454,223.2,452.7,223.2,450.6L223.2,450.6z M246.8,438.2v19.3h-2.8l0.2-2.5l-0.1-0.1c-1,1.9-3.1,2.9-6.3,2.9
				c-4.5,0-6.7-2.2-6.7-6.7v-12.8h2.8v12.8c0,1.7,0.3,2.9,0.9,3.5c0.6,0.6,1.7,0.9,3.4,0.9c2.2,0,3.7-0.4,4.6-1.3
				c0.8-0.9,1.2-2.5,1.2-4.8v-11L246.8,438.2L246.8,438.2z M255.8,430v27.5H253V430H255.8z M261.8,438.2h2.8l-0.1,2.4l0.1,0.1
				c1-1.9,3.1-2.8,6.3-2.8c2.9,0,4.8,0.7,5.9,2.2c1.1,1.4,1.6,4.1,1.6,8c0,3.6-0.5,6.1-1.6,7.5c-1.1,1.4-3,2.1-5.8,2.1
				c-3.2,0-5.3-0.9-6.3-2.6h-0.1v10.5h-2.8V438.2z M270.1,440.3c-2.3,0-3.7,0.5-4.4,1.5c-0.7,1-1,3.1-1,6.3c0,3,0.4,4.9,1.1,5.9
				c0.7,1,2.2,1.5,4.5,1.5c2.1,0,3.5-0.5,4.2-1.4c0.7-1,1-2.9,1-5.9c0-3.3-0.3-5.4-1-6.4C273.8,440.8,272.4,440.3,270.1,440.3z
				 M294.1,438.2v2.3h-7.4v11.8c0,2.1,0.9,3.1,2.7,3.1c1.8,0,2.7-0.9,2.7-2.8l0-0.9l0-1.1h2.6l0,1.4c0,3.8-1.8,5.7-5.4,5.7
				c-3.7,0-5.6-1.6-5.6-4.7v-12.5h-2.7v-2.3h2.7v-4.6h2.8v4.6H294.1L294.1,438.2z M301.2,430v3.2h-2.8V430H301.2z M301.2,438.2v19.3
				h-2.8v-19.3H301.2z M307.2,438.2h2.7l-0.1,2.6l0.1,0.1c0.9-2,3-3,6.4-3c2.8,0,4.6,0.5,5.6,1.4c1,1,1.5,2.8,1.5,5.6v12.5h-2.8v-13
				c0-1.7-0.3-2.8-0.9-3.3c-0.6-0.6-1.8-0.9-3.6-0.9c-4,0-5.9,1.9-5.9,5.6v11.6h-2.8V438.2L307.2,438.2z M345.6,438.2v20.5
				c0,2.8-0.6,4.7-1.8,5.8c-1.2,1-3.4,1.6-6.6,1.6c-2.9,0-4.8-0.4-5.9-1.3c-1-0.9-1.6-2.5-1.6-5h2.7c0,1.7,0.3,2.7,0.9,3.2
				c0.6,0.5,1.9,0.7,4,0.7c2.1,0,3.6-0.3,4.3-1c0.7-0.6,1.1-1.9,1.1-3.8v-3.9l-0.1,0c-0.7,1.8-2.8,2.7-6.3,2.7
				c-2.8,0-4.8-0.7-5.9-2.1c-1.1-1.4-1.6-4-1.6-7.7c0-3.9,0.5-6.5,1.6-7.9c1.1-1.4,3.1-2.1,6.1-2.1c3.2,0,5.2,1,6.2,2.9l0.1,0
				l-0.1-2.6H345.6L345.6,438.2z M337.2,440.3c-2.2,0-3.6,0.5-4.3,1.4c-0.7,0.9-1,3-1,6.1c0,3.2,0.3,5.2,1,6.2
				c0.7,0.9,2.1,1.4,4.3,1.4c2.2,0,3.7-0.5,4.4-1.6c0.7-1,1.1-3.2,1.1-6.5c0-2.9-0.4-4.8-1.1-5.7
				C340.9,440.8,339.4,440.3,337.2,440.3z M373.1,438.2v2.3h-7.4v11.8c0,2.1,0.9,3.1,2.7,3.1c1.8,0,2.7-0.9,2.7-2.8l0-0.9l0-1.1h2.6
				l0,1.4c0,3.8-1.8,5.7-5.4,5.7c-3.7,0-5.6-1.6-5.6-4.7v-12.5h-2.7v-2.3h2.7v-4.6h2.8v4.6H373.1z M380.2,430v10.6l0.1,0
				c0.7-1.8,2.7-2.7,6-2.7c4.8,0,7.2,2.1,7.2,6.4v13.1h-2.8v-12.9c0-2.9-1.5-4.3-4.5-4.3c-2.4,0-4,0.4-4.8,1.3
				c-0.8,0.9-1.2,2.6-1.2,5.1v10.8h-2.8V430L380.2,430L380.2,430z M407.6,438c3.6,0,5.9,0.6,6.9,1.9c1.1,1.2,1.6,3.9,1.6,8.1
				c0,4.1-0.5,6.8-1.6,8.1c-1.1,1.2-3.4,1.9-6.9,1.9c-3.5,0-5.9-0.6-6.9-1.9c-1.1-1.2-1.6-3.9-1.6-8.1c0-4.1,0.5-6.8,1.6-8.1
				C401.7,438.6,404,438,407.6,438z M407.6,440.3c-2.5,0-4,0.4-4.6,1.2c-0.6,0.8-0.9,2.9-0.9,6.4c0,3.4,0.3,5.5,0.9,6.4
				c0.6,0.8,2.1,1.2,4.6,1.2c2.5,0,4.1-0.4,4.7-1.2c0.6-0.8,0.9-2.9,0.9-6.4c0-3.4-0.3-5.5-0.9-6.4
				C411.6,440.7,410.1,440.3,407.6,440.3z M437.2,438.2v19.3h-2.8l0.2-2.5l-0.1-0.1c-1,1.9-3.1,2.9-6.3,2.9c-4.5,0-6.7-2.2-6.7-6.7
				v-12.8h2.8v12.8c0,1.7,0.3,2.9,0.9,3.5c0.6,0.6,1.7,0.9,3.4,0.9c2.2,0,3.7-0.4,4.6-1.3c0.8-0.9,1.2-2.5,1.2-4.8v-11L437.2,438.2
				L437.2,438.2z M459.6,438.2v20.5c0,2.8-0.6,4.7-1.8,5.8c-1.2,1-3.4,1.6-6.6,1.6c-2.9,0-4.8-0.4-5.9-1.3c-1-0.9-1.6-2.5-1.6-5h2.7
				c0,1.7,0.3,2.7,0.9,3.2c0.6,0.5,1.9,0.7,4,0.7c2.1,0,3.6-0.3,4.3-1c0.7-0.6,1.1-1.9,1.1-3.8v-3.9l-0.1,0
				c-0.7,1.8-2.8,2.7-6.3,2.7c-2.8,0-4.8-0.7-5.9-2.1c-1.1-1.4-1.6-4-1.6-7.7c0-3.9,0.5-6.5,1.6-7.9c1.1-1.4,3.1-2.1,6.1-2.1
				c3.2,0,5.2,1,6.2,2.9l0.1,0l-0.1-2.6H459.6L459.6,438.2z M451.2,440.3c-2.2,0-3.6,0.5-4.3,1.4c-0.7,0.9-1,3-1,6.1
				c0,3.2,0.3,5.2,1,6.2c0.7,0.9,2.1,1.4,4.3,1.4c2.2,0,3.7-0.5,4.4-1.6c0.7-1,1.1-3.2,1.1-6.5c0-2.9-0.4-4.8-1.1-5.7
				C454.9,440.8,453.4,440.3,451.2,440.3z M468.4,430v10.6l0.1,0c0.7-1.8,2.7-2.7,6-2.7c4.8,0,7.2,2.1,7.2,6.4v13.1h-2.8v-12.9
				c0-2.9-1.5-4.3-4.5-4.3c-2.4,0-4,0.4-4.8,1.3c-0.8,0.9-1.2,2.6-1.2,5.1v10.8h-2.8V430L468.4,430L468.4,430z M498,438.2v2.3h-7.4
				v11.8c0,2.1,0.9,3.1,2.7,3.1c1.8,0,2.7-0.9,2.7-2.8l0-0.9l0-1.1h2.6l0,1.4c0,3.8-1.8,5.7-5.4,5.7c-3.7,0-5.6-1.6-5.6-4.7v-12.5
				h-2.7v-2.3h2.7v-4.6h2.8v4.6H498z M517.2,443.3h-2.8c0-1.3-0.3-2.2-0.8-2.5c-0.5-0.3-1.9-0.5-4.2-0.5c-2.1,0-3.4,0.2-4,0.5
				c-0.6,0.3-0.9,1.2-0.9,2.5c0,2,0.9,3,2.8,3.1l2.3,0.1l2.9,0.1c3.5,0.2,5.2,2,5.2,5.5c0,2.2-0.6,3.6-1.7,4.5
				c-1.2,0.8-3.3,1.2-6.4,1.2c-3.2,0-5.3-0.4-6.5-1.2c-1.2-0.8-1.8-2.2-1.8-4.2l0-1h2.9l0,0.9c0,1.3,0.3,2.1,1,2.5
				c0.6,0.4,1.9,0.6,3.8,0.6c2.3,0,3.8-0.2,4.6-0.7c0.7-0.4,1.1-1.4,1.1-2.8c0-2-0.9-3-2.8-3c-4.3,0-7.1-0.4-8.5-1.1
				c-1.4-0.7-2-2.2-2-4.5c0-2.2,0.5-3.6,1.6-4.3c1.1-0.7,3.2-1.1,6.4-1.1c5.1,0,7.7,1.5,7.7,4.6L517.2,443.3L517.2,443.3z
				 M526,453.8v3.7h-3.1v-3.7H526z M535.1,453.8v3.7H532v-3.7H535.1z M544.1,453.8v3.7H541v-3.7H544.1z"/>
		</g>
	</g>
</switch>
</svg>
